<?xml version="1.0" standalone="no"?>
<!DOCTYPE svg PUBLIC "-//W3C//DTD SVG 20010904//EN"
 "http://www.w3.org/TR/2001/REC-SVG-20010904/DTD/svg10.dtd">
<svg version="1.0" xmlns="http://www.w3.org/2000/svg"
 width="168.000000pt" height="152.000000pt" viewBox="0 0 168.000000 152.000000"
 preserveAspectRatio="xMidYMid meet">

<g transform="translate(0.000000,152.000000) scale(0.100000,-0.100000)"
fill="#000000" stroke="none">
<path d="M750 1491 c-286 -40 -536 -271 -595 -551 -33 -159 -13 -317 60 -468
38 -79 59 -107 134 -183 76 -75 104 -96 183 -134 123 -59 213 -78 348 -72 307
13 554 208 650 512 18 56 22 94 22 190 0 208 -60 355 -206 501 -93 92 -183
147 -296 180 -86 25 -219 36 -300 25z m305 -85 c190 -61 350 -221 411 -411 77
-240 19 -490 -155 -665 -134 -136 -277 -195 -466 -195 -199 1 -366 78 -492
227 -110 129 -157 256 -158 423 0 189 59 332 195 466 87 87 198 149 310 174
97 22 254 14 355 -19z"/>
<path d="M782 929 c-65 -32 -97 -87 -97 -164 0 -78 33 -132 97 -164 58 -28
145 -28 198 -1 51 26 54 33 26 59 l-24 22 -33 -20 c-19 -12 -48 -21 -65 -21
-44 0 -96 38 -113 84 -13 33 -13 44 0 79 27 78 109 108 178 66 l33 -20 24 22
c28 26 25 33 -26 59 -54 27 -141 27 -198 -1z"/>
</g>
</svg>
