<?xml version="1.0" standalone="no"?>
<!DOCTYPE svg PUBLIC "-//W3C//DTD SVG 20010904//EN"
 "http://www.w3.org/TR/2001/REC-SVG-20010904/DTD/svg10.dtd">
<svg version="1.0" xmlns="http://www.w3.org/2000/svg"
 width="500.000000pt" height="500.000000pt" viewBox="0 0 500.000000 500.000000"
 preserveAspectRatio="xMidYMid meet">

<g transform="translate(0.000000,500.000000) scale(0.100000,-0.100000)"
fill="#000000" stroke="none">
<path d="M750 2880 c0 -358 2 -410 15 -410 13 0 15 51 15 400 l0 400 400 0
c260 0 400 4 400 10 0 7 -145 10 -415 10 l-415 0 0 -410z"/>
<path d="M4220 2140 l0 -400 -400 0 c-349 0 -400 -2 -400 -15 0 -13 52 -15
410 -15 l410 0 0 415 c0 270 -3 415 -10 415 -6 0 -10 -140 -10 -400z"/>
</g>
</svg>
